<svg xmlns="http://www.w3.org/2000/svg" viewBox="0 0 220 40" width="220" height="40">
  <g transform="translate(4 4)">
    <rect width="32" height="32" rx="6" fill="#0b0b0d" stroke="#26262c"/>
    <g fill="#d4a857" transform="translate(4 4) scale(0.375)">
      <circle cx="14" cy="14" r="1.6"/>
      <circle cx="22" cy="12" r="2.4"/>
      <circle cx="30" cy="12" r="2.7"/>
      <circle cx="38" cy="14" r="2.2"/>
      <circle cx="46" cy="16" r="1.6"/>
      <circle cx="14" cy="22" r="2.3"/>
      <circle cx="22" cy="20" r="3.1" fill="#e6bd6c"/>
      <circle cx="30" cy="20" r="3.4" fill="#e6bd6c"/>
      <circle cx="38" cy="22" r="2.9"/>
      <circle cx="46" cy="24" r="2.1"/>
      <circle cx="54" cy="26" r="1.4"/>
      <circle cx="10" cy="30" r="1.9"/>
      <circle cx="18" cy="28" r="2.8"/>
      <circle cx="26" cy="28" r="3.2" fill="#e6bd6c"/>
      <circle cx="34" cy="30" r="3.3"/>
      <circle cx="42" cy="32" r="2.9"/>
      <circle cx="50" cy="34" r="2.2"/>
      <circle cx="14" cy="38" r="2.5"/>
      <circle cx="22" cy="38" r="3.0"/>
      <circle cx="30" cy="40" r="3.2"/>
      <circle cx="38" cy="42" r="2.7"/>
      <circle cx="46" cy="42" r="2.1"/>
      <circle cx="18" cy="46" r="2.2"/>
      <circle cx="26" cy="48" r="2.7"/>
      <circle cx="34" cy="48" r="2.7"/>
      <circle cx="42" cy="50" r="2.0"/>
      <circle cx="22" cy="54" r="1.7"/>
      <circle cx="30" cy="54" r="1.9"/>
      <circle cx="38" cy="54" r="1.5"/>
    </g>
  </g>
  <text x="44" y="26" font-family="Inter, system-ui, -apple-system, sans-serif" font-size="17" font-weight="600" letter-spacing="-0.01em" fill="#ededea">dot prediction</text>
</svg>
